<svg width="100" height="100" viewBox="0 0 100 100" fill="none" xmlns="http://www.w3.org/2000/svg">
<rect x="29" y="10" width="42" height="88" rx="6" stroke="white" stroke-opacity="0.9" stroke-width="4"/>
<rect x="34" y="48" width="32" height="45" rx="2" fill="#FFF4D3" fill-opacity="0.9"/>
<path d="M42.6627 4.81928C42.6627 3.12627 42.6627 2.27976 42.9896 1.63803C43.2773 1.07354 43.7362 0.614601 44.3007 0.32698C44.9424 0 45.7825 0 47.4627 0L52.3205 0C54.0006 0 54.8407 0 55.4825 0.32698C56.0469 0.614601 56.5059 1.07354 56.7935 1.63803C57.1205 2.27976 57.1205 3.12627 57.1205 4.81928C57.1205 5.24253 57.1205 5.45415 57.0387 5.61459C56.9668 5.75571 56.8521 5.87045 56.711 5.94235C56.5505 6.0241 56.3405 6.0241 55.9205 6.0241L43.8627 6.0241C43.4426 6.0241 43.2326 6.0241 43.0722 5.94235C42.931 5.87045 42.8163 5.75571 42.7444 5.61459C42.6627 5.45415 42.6627 5.24253 42.6627 4.81928Z" fill="white" fill-opacity="0.9"/>
</svg>
