<svg width="100" height="100" viewBox="0 0 100 100" fill="none" xmlns="http://www.w3.org/2000/svg">
<path fill-rule="evenodd" clip-rule="evenodd" d="M59.649 40.3245C59.649 50.9971 50.9971 59.649 40.3245 59.649C29.6519 59.649 21 50.9971 21 40.3245C21 29.6519 29.6519 21 40.3245 21C50.9971 21 59.649 29.6519 59.649 40.3245ZM55.985 60.2276C51.6756 63.6231 46.2366 65.649 40.3245 65.649C26.3382 65.649 15 54.3108 15 40.3245C15 26.3382 26.3382 15 40.3245 15C54.3108 15 65.649 26.3382 65.649 40.3245C65.649 46.2366 63.6231 51.6756 60.2276 55.985L85.243 81.0003C86.4145 82.1719 86.4145 84.0714 85.243 85.243C84.0714 86.4145 82.1719 86.4145 81.0003 85.243L55.985 60.2276Z" fill="white" fill-opacity="0.9"/>
</svg>
