<svg width="100" height="100" viewBox="0 0 100 100" fill="none" xmlns="http://www.w3.org/2000/svg">
<rect x="29" y="10" width="42" height="88" rx="6" stroke="white" stroke-opacity="0.9" stroke-width="4"/>
<rect x="34" y="75" width="32" height="18" rx="2" fill="#FF8E8E" fill-opacity="0.9"/>
<path d="M42.6627 4.81928C42.6627 3.12627 42.6627 2.27976 42.9896 1.63803C43.2773 1.07354 43.7362 0.614601 44.3007 0.32698C44.9424 0 45.7825 0 47.4627 0L52.3205 0C54.0006 0 54.8407 0 55.4825 0.32698C56.0469 0.614601 56.5059 1.07354 56.7935 1.63803C57.1205 2.27976 57.1205 3.12627 57.1205 4.81928C57.1205 5.24253 57.1205 5.45415 57.0387 5.61459C56.9668 5.75571 56.8521 5.87045 56.711 5.94235C56.5505 6.0241 56.3405 6.0241 55.9205 6.0241L43.8627 6.0241C43.4426 6.0241 43.2326 6.0241 43.0722 5.94235C42.931 5.87045 42.8163 5.75571 42.7444 5.61459C42.6627 5.45415 42.6627 5.24253 42.6627 4.81928Z" fill="white" fill-opacity="0.9"/>
<path fill-rule="evenodd" clip-rule="evenodd" d="M42.225 55.7795C41.4914 55.3559 41.24 54.4178 41.6636 53.6842L48.5647 41.7311C48.9883 40.9974 49.9264 40.7461 50.66 41.1696C51.3937 41.5932 51.645 42.5313 51.2215 43.2649L45.6459 52.9221H55.4062C55.4464 52.9221 55.4863 52.9237 55.5257 52.9267C55.8059 52.9154 56.0925 52.9806 56.3532 53.1312C57.0869 53.5548 57.3382 54.4929 56.9147 55.2265L50.0101 67.1856C49.5865 67.9192 48.6485 68.1705 47.9148 67.747C47.1812 67.3234 46.9298 66.3853 47.3534 65.6517L52.9317 55.9898H43.1353C43.0943 55.9898 43.0537 55.9882 43.0135 55.9851C42.7458 55.9891 42.4737 55.923 42.225 55.7795Z" fill="white" fill-opacity="0.9"/>
</svg>
