<svg width="100" height="100" viewBox="0 0 100 100" fill="none" xmlns="http://www.w3.org/2000/svg">
<rect x="29" y="10" width="42" height="88" rx="6" stroke="white" stroke-opacity="0.9" stroke-width="4"/>
<path fill-rule="evenodd" clip-rule="evenodd" d="M41.6636 53.6842C41.24 54.4178 41.4914 55.3559 42.225 55.7795C42.4737 55.923 42.7458 55.9891 43.0135 55.9851C43.0537 55.9882 43.0943 55.9898 43.1353 55.9898H52.9317L52.2163 57.2289H55.7586L56.9147 55.2265C57.3383 54.4929 57.0869 53.5548 56.3533 53.1312C56.0925 52.9806 55.806 52.9154 55.5258 52.9267C55.4863 52.9237 55.4465 52.9221 55.4062 52.9221H45.6459L51.2214 43.2649C51.645 42.5313 51.3936 41.5932 50.66 41.1696C49.9264 40.7461 48.9883 40.9974 48.5647 41.7311L41.6636 53.6842Z" fill="white" fill-opacity="0.9"/>
<path d="M42.6626 4.81928C42.6626 3.12627 42.6626 2.27976 42.9896 1.63803C43.2772 1.07354 43.7362 0.614601 44.3007 0.32698C44.9424 0 45.7825 0 47.4626 0L52.3205 0C54.0006 0 54.8407 0 55.4824 0.32698C56.0469 0.614601 56.5059 1.07354 56.7935 1.63803C57.1205 2.27976 57.1205 3.12627 57.1205 4.81928C57.1205 5.24253 57.1205 5.45415 57.0387 5.61459C56.9668 5.75571 56.8521 5.87045 56.711 5.94235C56.5505 6.0241 56.3405 6.0241 55.9205 6.0241L43.8626 6.0241C43.4426 6.0241 43.2326 6.0241 43.0722 5.94235C42.931 5.87045 42.8163 5.75571 42.7444 5.61459C42.6626 5.45415 42.6626 5.24253 42.6626 4.81928Z" fill="white" fill-opacity="0.9"/>
<path fill-rule="evenodd" clip-rule="evenodd" d="M52.3485 57L37.2 57C36.0799 57 35.5198 57 35.092 57.218C34.7157 57.4097 34.4097 57.7157 34.218 58.092C34 58.5198 34 59.0799 34 60.2L34 89.8C34 90.9201 34 91.4802 34.218 91.908C34.4097 92.2843 34.7157 92.5903 35.092 92.782C35.5198 93 36.0799 93 37.2 93L62.8 93C63.9201 93 64.4802 93 64.908 92.782C65.2843 92.5903 65.5903 92.2843 65.782 91.908C66 91.4802 66 90.9201 66 89.8V60.2C66 59.0799 66 58.5198 65.782 58.092C65.5903 57.7157 65.2843 57.4097 64.908 57.218C64.4802 57 63.9201 57 62.8 57L55.8908 57L50.0102 67.1855C49.5866 67.9192 48.6485 68.1705 47.9149 67.747C47.1813 67.3234 46.9299 66.3853 47.3535 65.6517L52.3485 57Z" fill="#FCE3B5" fill-opacity="0.9"/>
</svg>
