<svg width="100" height="100" viewBox="0 0 100 100" fill="none" xmlns="http://www.w3.org/2000/svg">
<rect x="29" y="10" width="42" height="88" rx="6" stroke="white" stroke-opacity="0.9" stroke-width="4"/>
<path fill-rule="evenodd" clip-rule="evenodd" d="M48.6744 39.1566H51.112C50.9927 39.0003 50.841 38.8645 50.66 38.76C49.9843 38.3699 49.1353 38.5522 48.6744 39.1566Z" fill="white" fill-opacity="0.9"/>
<path d="M42.6627 4.81928C42.6627 3.12627 42.6627 2.27976 42.9896 1.63803C43.2773 1.07354 43.7362 0.614601 44.3007 0.32698C44.9424 0 45.7825 0 47.4627 0L52.3205 0C54.0006 0 54.8407 0 55.4825 0.32698C56.0469 0.614601 56.5059 1.07354 56.7935 1.63803C57.1205 2.27976 57.1205 3.12627 57.1205 4.81928C57.1205 5.24253 57.1205 5.45415 57.0387 5.61459C56.9668 5.75571 56.8521 5.87045 56.711 5.94235C56.5505 6.0241 56.3405 6.0241 55.9205 6.0241L43.8627 6.0241C43.4426 6.0241 43.2326 6.0241 43.0722 5.94235C42.931 5.87045 42.8163 5.75571 42.7444 5.61459C42.6627 5.45415 42.6627 5.24253 42.6627 4.81928Z" fill="white" fill-opacity="0.9"/>
<path fill-rule="evenodd" clip-rule="evenodd" d="M41.6636 51.2745C41.24 52.0082 41.4914 52.9463 42.225 53.3698C42.4737 53.5134 42.7459 53.5794 43.0135 53.5754C43.0537 53.5786 43.0943 53.5802 43.1353 53.5802H52.9317L47.3535 63.242C46.9299 63.9757 47.1813 64.9138 47.9149 65.3373C48.6485 65.7609 49.5866 65.5095 50.0102 64.7759L56.9147 52.8168C57.3383 52.0832 57.087 51.1451 56.3533 50.7215C56.0925 50.571 55.8059 50.5057 55.5258 50.5171C55.4863 50.514 55.4465 50.5125 55.4062 50.5125H45.6459L51.2215 40.8553C51.5772 40.2391 51.4568 39.4786 50.9745 39L62.8 39C63.9201 39 64.4802 39 64.908 39.218C65.2843 39.4097 65.5903 39.7157 65.782 40.092C66 40.5198 66 41.0799 66 42.2V89.8C66 90.9201 66 91.4802 65.782 91.908C65.5903 92.2843 65.2843 92.5903 64.908 92.782C64.4802 93 63.9201 93 62.8 93H37.2C36.0799 93 35.5198 93 35.092 92.782C34.7157 92.5903 34.4097 92.2843 34.218 91.908C34 91.4802 34 90.9201 34 89.8L34 42.2C34 41.0799 34 40.5198 34.218 40.092C34.4097 39.7157 34.7157 39.4097 35.092 39.218C35.5198 39 36.0799 39 37.2 39H48.8117C48.7176 39.0936 48.6342 39.201 48.5647 39.3214L41.6636 51.2745Z" fill="white" fill-opacity="0.9"/>
</svg>
