<svg width="100" height="100" viewBox="0 0 100 100" fill="none" xmlns="http://www.w3.org/2000/svg">
<rect x="29" y="10" width="42" height="88" rx="6" stroke="white" stroke-opacity="0.9" stroke-width="4"/>
<path d="M42.6627 4.81928C42.6627 3.12627 42.6627 2.27976 42.9896 1.63803C43.2773 1.07354 43.7362 0.614601 44.3007 0.32698C44.9424 0 45.7825 0 47.4627 0L52.3205 0C54.0006 0 54.8407 0 55.4825 0.32698C56.0469 0.614601 56.5059 1.07354 56.7935 1.63803C57.1205 2.27976 57.1205 3.12627 57.1205 4.81928C57.1205 5.24253 57.1205 5.45415 57.0387 5.61459C56.9668 5.75571 56.8521 5.87045 56.711 5.94235C56.5505 6.0241 56.3405 6.0241 55.9205 6.0241L43.8627 6.0241C43.4426 6.0241 43.2326 6.0241 43.0722 5.94235C42.931 5.87045 42.8163 5.75571 42.7444 5.61459C42.6627 5.45415 42.6627 5.24253 42.6627 4.81928Z" fill="white" fill-opacity="0.9"/>
<path fill-rule="evenodd" clip-rule="evenodd" d="M34.218 31.092C34 31.5198 34 32.0799 34 33.2L34 89.8C34 90.9201 34 91.4802 34.218 91.908C34.4097 92.2843 34.7157 92.5903 35.092 92.782C35.5198 93 36.0799 93 37.2 93H62.8C63.9201 93 64.4802 93 64.908 92.782C65.2843 92.5903 65.5903 92.2843 65.782 91.908C66 91.4802 66 90.9201 66 89.8L66 33.2C66 32.0799 66 31.5198 65.782 31.092C65.5903 30.7157 65.2843 30.4097 64.908 30.218C64.4802 30 63.9201 30 62.8 30L37.2 30C36.0799 30 35.5198 30 35.092 30.218C34.7157 30.4097 34.4097 30.7157 34.218 31.092ZM41.6636 51.2745C41.24 52.0082 41.4914 52.9463 42.225 53.3698C42.4737 53.5134 42.7459 53.5794 43.0135 53.5754C43.0537 53.5786 43.0943 53.5802 43.1353 53.5802H52.9317L47.3534 63.242C46.9299 63.9757 47.1812 64.9138 47.9149 65.3373C48.6485 65.7609 49.5866 65.5095 50.0102 64.7759L56.9147 52.8168C57.3383 52.0832 57.0869 51.1451 56.3533 50.7215C56.0925 50.571 55.8059 50.5057 55.5258 50.517C55.4863 50.514 55.4465 50.5125 55.4062 50.5125H45.6459L51.2215 40.8553C51.645 40.1216 51.3937 39.1835 50.66 38.76C49.9264 38.3364 48.9883 38.5878 48.5647 39.3214L41.6636 51.2745Z" fill="white" fill-opacity="0.9"/>
</svg>
