<svg width="100" height="100" viewBox="0 0 100 100" fill="none" xmlns="http://www.w3.org/2000/svg">
<rect x="29" y="10" width="42" height="88" rx="6" stroke="white" stroke-opacity="0.9" stroke-width="4"/>
<path d="M42.6627 4.81928C42.6627 3.12627 42.6627 2.27976 42.9896 1.63803C43.2773 1.07354 43.7362 0.614601 44.3007 0.32698C44.9424 0 45.7825 0 47.4627 0L52.3205 0C54.0006 0 54.8407 0 55.4825 0.32698C56.0469 0.614601 56.5059 1.07354 56.7935 1.63803C57.1205 2.27976 57.1205 3.12627 57.1205 4.81928C57.1205 5.24253 57.1205 5.45415 57.0387 5.61459C56.9668 5.75571 56.8521 5.87045 56.711 5.94235C56.5505 6.0241 56.3405 6.0241 55.9205 6.0241L43.8627 6.0241C43.4426 6.0241 43.2326 6.0241 43.0722 5.94235C42.931 5.87045 42.8163 5.75571 42.7444 5.61459C42.6627 5.45415 42.6627 5.24253 42.6627 4.81928Z" fill="white" fill-opacity="0.9"/>
<path fill-rule="evenodd" clip-rule="evenodd" d="M34.218 23.092C34 23.5198 34 24.0799 34 25.2L34 89.8C34 90.9201 34 91.4802 34.218 91.908C34.4097 92.2843 34.7157 92.5903 35.092 92.782C35.5198 93 36.0799 93 37.2 93H62.8C63.9201 93 64.4802 93 64.908 92.782C65.2843 92.5903 65.5903 92.2843 65.782 91.908C66 91.4802 66 90.9201 66 89.8L66 25.2C66 24.0799 66 23.5198 65.782 23.092C65.5903 22.7157 65.2843 22.4097 64.908 22.218C64.4802 22 63.9201 22 62.8 22L37.2 22C36.0799 22 35.5198 22 35.092 22.218C34.7157 22.4097 34.4097 22.7157 34.218 23.092ZM42.8684 53.6842C42.4448 54.4178 42.6962 55.3559 43.4298 55.7795C43.6785 55.923 43.9507 55.9891 44.2183 55.9851C44.2585 55.9882 44.2992 55.9898 44.3402 55.9898H54.1366L48.5583 65.6517C48.1347 66.3853 48.3861 67.3234 49.1197 67.747C49.8533 68.1705 50.7914 67.9192 51.215 67.1855L58.1196 55.2265C58.5431 54.4928 58.2918 53.5548 57.5581 53.1312C57.2974 52.9806 57.0107 52.9153 56.7306 52.9267C56.6911 52.9236 56.6513 52.9221 56.611 52.9221H46.8507L52.4263 43.2649C52.8498 42.5313 52.5985 41.5932 51.8648 41.1696C51.1312 40.746 50.1931 40.9974 49.7696 41.731L42.8684 53.6842Z" fill="white" fill-opacity="0.9"/>
</svg>
