<svg width="100" height="100" viewBox="0 0 100 100" fill="none" xmlns="http://www.w3.org/2000/svg">
<rect x="29" y="10" width="42" height="88" rx="6" stroke="white" stroke-opacity="0.9" stroke-width="4"/>
<path fill-rule="evenodd" clip-rule="evenodd" d="M34.218 16.092C34 16.5198 34 17.0799 34 18.2L34 89.8C34 90.9201 34 91.4802 34.218 91.908C34.4097 92.2843 34.7157 92.5903 35.092 92.782C35.5198 93 36.0799 93 37.2 93H62.8C63.9201 93 64.4802 93 64.908 92.782C65.2843 92.5903 65.5903 92.2843 65.782 91.908C66 91.4802 66 90.9201 66 89.8L66 18.2C66 17.0799 66 16.5198 65.782 16.092C65.5903 15.7157 65.2843 15.4097 64.908 15.218C64.4802 15 63.9201 15 62.8 15L37.2 15C36.0799 15 35.5198 15 35.092 15.218C34.7157 15.4097 34.4097 15.7157 34.218 16.092ZM42.9769 53.6842C42.5533 54.4178 42.8046 55.3559 43.5383 55.7795C43.787 55.923 44.0591 55.9891 44.3268 55.9851C44.367 55.9882 44.4076 55.9898 44.4486 55.9898H54.245L48.6667 65.6517C48.2432 66.3853 48.4945 67.3234 49.2282 67.747C49.9618 68.1705 50.8999 67.9192 51.3234 67.1855L58.228 55.2265C58.6516 54.4928 58.4002 53.5547 57.6666 53.1312C57.4058 52.9806 57.1192 52.9154 56.8391 52.9267C56.7996 52.9236 56.7597 52.9221 56.7195 52.9221L46.9591 52.9221L52.5347 43.2649C52.9583 42.5313 52.7069 41.5932 51.9733 41.1696C51.2397 40.746 50.3016 40.9974 49.878 41.731L42.9769 53.6842Z" fill="white" fill-opacity="0.9"/>
<path d="M42.7711 4.81928C42.7711 3.12627 42.7711 2.27976 43.098 1.63803C43.3857 1.07354 43.8446 0.614601 44.4091 0.32698C45.0508 0 45.8909 0 47.5711 0L52.4289 0C54.109 0 54.9491 0 55.5909 0.32698C56.1553 0.614601 56.6143 1.07354 56.9019 1.63803C57.2289 2.27976 57.2289 3.12627 57.2289 4.81928C57.2289 5.24253 57.2289 5.45415 57.1471 5.61459C57.0752 5.75571 56.9605 5.87045 56.8194 5.94235C56.6589 6.0241 56.4489 6.0241 56.0289 6.0241L43.9711 6.0241C43.551 6.0241 43.341 6.0241 43.1806 5.94235C43.0394 5.87045 42.9247 5.75571 42.8528 5.61459C42.7711 5.45415 42.7711 5.24253 42.7711 4.81928Z" fill="white" fill-opacity="0.9"/>
</svg>
